<svg width="227" height="80" viewBox="0 0 227 80" fill="none" xmlns="http://www.w3.org/2000/svg">
<g clip-path="url(#clip0_1229_336)">
<path d="M0 1.95177C0 0.873837 0.873834 0 1.95176 0H225.048C226.126 0 227 0.873834 227 1.95176V78.0482C227 79.1262 226.126 80 225.048 80H1.95177C0.873837 80 0 79.1262 0 78.0482V1.95177Z" fill="#427A5B"/>
<path d="M746.331 330.965L-565.642 -4652.2H-226.836L1085.14 330.965H746.331Z" fill="#FFCA66"/>
<path d="M1160.32 3468.64L-151.658 -1514.53H187.148L1499.12 3468.64H1160.32Z" fill="#B4CD93"/>
<path d="M486.018 1896.29L-157.806 -553.346H8.4561L652.28 1896.29H486.018Z" fill="#FF896B"/>
<path d="M316.022 471.168L-94.2737 -1088.25H11.6817L421.977 471.168H316.022Z" fill="#FFCA66"/>
<path d="M146.668 844.949L-120.916 -170.103H-51.8149L215.769 844.949H146.668Z" fill="#FFCA66"/>
<path d="M576.424 601.779L65.5817 -1340.33H197.503L708.345 601.779H576.424Z" fill="#FF896B"/>
<path d="M35.3749 335.353L-475.467 -1606.75H-343.547L167.296 335.353H35.3749Z" fill="#B4CD93"/>
</g>
<defs>
<clipPath id="clip0_1229_336">
<path d="M0 1.95177C0 0.873837 0.873834 0 1.95176 0H225.048C226.126 0 227 0.873834 227 1.95176V78.0482C227 79.1262 226.126 80 225.048 80H1.95177C0.873837 80 0 79.1262 0 78.0482V1.95177Z" fill="white"/>
</clipPath>
</defs>
</svg>
