<svg width="54" height="24" viewBox="0 0 54 24" fill="none" xmlns="http://www.w3.org/2000/svg">
<rect width="54" height="24" rx="4" fill="#FDF8CE"/>
<path d="M4.84 17V8.36H8.176C8.26 8.36 8.354 8.364 8.458 8.372C8.566 8.376 8.674 8.388 8.782 8.408C9.234 8.476 9.616 8.634 9.928 8.882C10.244 9.126 10.482 9.434 10.642 9.806C10.806 10.178 10.888 10.59 10.888 11.042C10.888 11.49 10.806 11.9 10.642 12.272C10.478 12.644 10.238 12.954 9.922 13.202C9.61 13.446 9.23 13.602 8.782 13.67C8.674 13.686 8.566 13.698 8.458 13.706C8.354 13.714 8.26 13.718 8.176 13.718H5.722V17H4.84ZM5.722 12.878H8.152C8.224 12.878 8.308 12.874 8.404 12.866C8.5 12.858 8.594 12.844 8.686 12.824C8.982 12.76 9.224 12.638 9.412 12.458C9.604 12.278 9.746 12.064 9.838 11.816C9.934 11.568 9.982 11.31 9.982 11.042C9.982 10.774 9.934 10.516 9.838 10.268C9.746 10.016 9.604 9.8 9.412 9.62C9.224 9.44 8.982 9.318 8.686 9.254C8.594 9.234 8.5 9.222 8.404 9.218C8.308 9.21 8.224 9.206 8.152 9.206H5.722V12.878ZM14.789 17.18C14.157 17.18 13.609 17.04 13.145 16.76C12.685 16.48 12.327 16.086 12.071 15.578C11.815 15.07 11.687 14.474 11.687 13.79C11.687 13.082 11.813 12.47 12.065 11.954C12.317 11.438 12.671 11.04 13.127 10.76C13.587 10.48 14.129 10.34 14.753 10.34C15.393 10.34 15.939 10.488 16.391 10.784C16.843 11.076 17.185 11.496 17.417 12.044C17.649 12.592 17.755 13.246 17.735 14.006H16.835V13.694C16.819 12.854 16.637 12.22 16.289 11.792C15.945 11.364 15.441 11.15 14.777 11.15C14.081 11.15 13.547 11.376 13.175 11.828C12.807 12.28 12.623 12.924 12.623 13.76C12.623 14.576 12.807 15.21 13.175 15.662C13.547 16.11 14.073 16.334 14.753 16.334C15.217 16.334 15.621 16.228 15.965 16.016C16.313 15.8 16.587 15.49 16.787 15.086L17.609 15.404C17.353 15.968 16.975 16.406 16.475 16.718C15.979 17.026 15.417 17.18 14.789 17.18ZM12.311 14.006V13.268H17.261V14.006H12.311ZM23.5708 17V13.694C23.5708 13.334 23.5368 13.004 23.4688 12.704C23.4008 12.4 23.2908 12.136 23.1388 11.912C22.9908 11.684 22.7968 11.508 22.5568 11.384C22.3208 11.26 22.0328 11.198 21.6928 11.198C21.3808 11.198 21.1048 11.252 20.8648 11.36C20.6288 11.468 20.4288 11.624 20.2648 11.828C20.1048 12.028 19.9828 12.272 19.8988 12.56C19.8148 12.848 19.7728 13.176 19.7728 13.544L19.1488 13.406C19.1488 12.742 19.2648 12.184 19.4968 11.732C19.7288 11.28 20.0488 10.938 20.4568 10.706C20.8648 10.474 21.3328 10.358 21.8608 10.358C22.2488 10.358 22.5868 10.418 22.8748 10.538C23.1668 10.658 23.4128 10.82 23.6128 11.024C23.8168 11.228 23.9808 11.462 24.1048 11.726C24.2288 11.986 24.3188 12.264 24.3748 12.56C24.4308 12.852 24.4588 13.144 24.4588 13.436V17H23.5708ZM18.8848 17V10.52H19.6828V12.116H19.7728V17H18.8848ZM28.4946 17.18C27.8906 17.18 27.3746 17.03 26.9466 16.73C26.5186 16.426 26.1906 16.016 25.9626 15.5C25.7346 14.984 25.6206 14.402 25.6206 13.754C25.6206 13.11 25.7326 12.53 25.9566 12.014C26.1846 11.498 26.5106 11.09 26.9346 10.79C27.3586 10.49 27.8666 10.34 28.4586 10.34C29.0666 10.34 29.5786 10.488 29.9946 10.784C30.4106 11.08 30.7246 11.486 30.9366 12.002C31.1526 12.514 31.2606 13.098 31.2606 13.754C31.2606 14.398 31.1546 14.98 30.9426 15.5C30.7306 16.016 30.4186 16.426 30.0066 16.73C29.5946 17.03 29.0906 17.18 28.4946 17.18ZM28.5846 16.358C29.0446 16.358 29.4246 16.246 29.7246 16.022C30.0246 15.798 30.2486 15.49 30.3966 15.098C30.5446 14.702 30.6186 14.254 30.6186 13.754C30.6186 13.246 30.5446 12.798 30.3966 12.41C30.2486 12.018 30.0246 11.712 29.7246 11.492C29.4286 11.272 29.0546 11.162 28.6026 11.162C28.1386 11.162 27.7546 11.276 27.4506 11.504C27.1466 11.732 26.9206 12.042 26.7726 12.434C26.6286 12.826 26.5566 13.266 26.5566 13.754C26.5566 14.246 26.6306 14.69 26.7786 15.086C26.9306 15.478 27.1566 15.788 27.4566 16.016C27.7566 16.244 28.1326 16.358 28.5846 16.358ZM30.6186 17V12.122H30.5226V8.36H31.4106V17H30.6186ZM33.2139 9.29V8.3H34.0959V9.29H33.2139ZM33.2139 17V10.52H34.0959V17H33.2139ZM40.5747 17V13.694C40.5747 13.334 40.5407 13.004 40.4727 12.704C40.4047 12.4 40.2947 12.136 40.1427 11.912C39.9947 11.684 39.8007 11.508 39.5607 11.384C39.3247 11.26 39.0367 11.198 38.6967 11.198C38.3847 11.198 38.1087 11.252 37.8687 11.36C37.6327 11.468 37.4327 11.624 37.2687 11.828C37.1087 12.028 36.9867 12.272 36.9027 12.56C36.8187 12.848 36.7767 13.176 36.7767 13.544L36.1527 13.406C36.1527 12.742 36.2687 12.184 36.5007 11.732C36.7327 11.28 37.0527 10.938 37.4607 10.706C37.8687 10.474 38.3367 10.358 38.8647 10.358C39.2527 10.358 39.5907 10.418 39.8787 10.538C40.1707 10.658 40.4167 10.82 40.6167 11.024C40.8207 11.228 40.9847 11.462 41.1087 11.726C41.2327 11.986 41.3227 12.264 41.3787 12.56C41.4347 12.852 41.4627 13.144 41.4627 13.436V17H40.5747ZM35.8887 17V10.52H36.6867V12.116H36.7767V17H35.8887ZM45.5937 20.06C45.2617 20.06 44.9337 20.01 44.6097 19.91C44.2897 19.814 43.9937 19.66 43.7217 19.448C43.4497 19.24 43.2217 18.968 43.0377 18.632L43.8357 18.188C44.0157 18.548 44.2677 18.806 44.5917 18.962C44.9197 19.122 45.2537 19.202 45.5937 19.202C46.0617 19.202 46.4397 19.114 46.7277 18.938C47.0197 18.766 47.2317 18.51 47.3637 18.17C47.4957 17.83 47.5597 17.406 47.5557 16.898V15.17H47.6577V10.52H48.4437V16.91C48.4437 17.094 48.4377 17.27 48.4257 17.438C48.4177 17.61 48.3997 17.778 48.3717 17.942C48.2957 18.426 48.1377 18.824 47.8977 19.136C47.6617 19.448 47.3497 19.68 46.9617 19.832C46.5777 19.984 46.1217 20.06 45.5937 20.06ZM45.5337 17.18C44.9297 17.18 44.4137 17.03 43.9857 16.73C43.5577 16.426 43.2297 16.016 43.0017 15.5C42.7737 14.984 42.6597 14.402 42.6597 13.754C42.6597 13.11 42.7717 12.53 42.9957 12.014C43.2237 11.498 43.5497 11.09 43.9737 10.79C44.3977 10.49 44.9057 10.34 45.4977 10.34C46.1057 10.34 46.6177 10.488 47.0337 10.784C47.4497 11.08 47.7637 11.486 47.9757 12.002C48.1917 12.514 48.2997 13.098 48.2997 13.754C48.2997 14.398 48.1937 14.98 47.9817 15.5C47.7697 16.016 47.4577 16.426 47.0457 16.73C46.6337 17.03 46.1297 17.18 45.5337 17.18ZM45.6237 16.358C46.0837 16.358 46.4637 16.246 46.7637 16.022C47.0637 15.798 47.2877 15.49 47.4357 15.098C47.5837 14.702 47.6577 14.254 47.6577 13.754C47.6577 13.246 47.5837 12.798 47.4357 12.41C47.2877 12.018 47.0637 11.712 46.7637 11.492C46.4677 11.272 46.0937 11.162 45.6417 11.162C45.1777 11.162 44.7937 11.276 44.4897 11.504C44.1857 11.732 43.9597 12.042 43.8117 12.434C43.6677 12.826 43.5957 13.266 43.5957 13.754C43.5957 14.246 43.6697 14.69 43.8177 15.086C43.9697 15.478 44.1957 15.788 44.4957 16.016C44.7957 16.244 45.1717 16.358 45.6237 16.358Z" fill="#938406"/>
</svg>
