 <svg width="51" height="24" viewBox="0 0 51 24" fill="none" xmlns="http://www.w3.org/2000/svg">
<rect width="51" height="24" rx="4" fill="#DEEDE5"/>
<path d="M7.036 17L4.06 8.36H4.978L7.612 15.998L10.264 8.36H11.182L8.206 17H7.036ZM14.1093 17.18C13.4773 17.18 12.9293 17.04 12.4653 16.76C12.0053 16.48 11.6473 16.086 11.3913 15.578C11.1353 15.07 11.0073 14.474 11.0073 13.79C11.0073 13.082 11.1333 12.47 11.3853 11.954C11.6373 11.438 11.9913 11.04 12.4473 10.76C12.9073 10.48 13.4493 10.34 14.0733 10.34C14.7133 10.34 15.2593 10.488 15.7113 10.784C16.1633 11.076 16.5053 11.496 16.7373 12.044C16.9693 12.592 17.0753 13.246 17.0553 14.006H16.1553V13.694C16.1393 12.854 15.9573 12.22 15.6093 11.792C15.2653 11.364 14.7613 11.15 14.0973 11.15C13.4013 11.15 12.8673 11.376 12.4953 11.828C12.1273 12.28 11.9433 12.924 11.9433 13.76C11.9433 14.576 12.1273 15.21 12.4953 15.662C12.8673 16.11 13.3933 16.334 14.0733 16.334C14.5373 16.334 14.9413 16.228 15.2853 16.016C15.6333 15.8 15.9073 15.49 16.1073 15.086L16.9293 15.404C16.6733 15.968 16.2953 16.406 15.7953 16.718C15.2993 17.026 14.7373 17.18 14.1093 17.18ZM11.6313 14.006V13.268H16.5813V14.006H11.6313ZM18.3869 17V10.52H19.1789V12.08L19.0229 11.876C19.0949 11.684 19.1889 11.508 19.3049 11.348C19.4209 11.184 19.5469 11.05 19.6829 10.946C19.8509 10.798 20.0469 10.686 20.2709 10.61C20.4949 10.53 20.7209 10.484 20.9489 10.472C21.1769 10.456 21.3849 10.472 21.5729 10.52V11.348C21.3369 11.288 21.0789 11.274 20.7989 11.306C20.5189 11.338 20.2609 11.45 20.0249 11.642C19.8089 11.81 19.6469 12.012 19.5389 12.248C19.4309 12.48 19.3589 12.728 19.3229 12.992C19.2869 13.252 19.2689 13.51 19.2689 13.766V17H18.3869ZM22.8311 9.29V8.3H23.7131V9.29H22.8311ZM22.8311 17V10.52H23.7131V17H22.8311ZM26.1539 17V10.04C26.1539 9.872 26.1619 9.706 26.1779 9.542C26.1979 9.378 26.2359 9.222 26.2919 9.074C26.3479 8.922 26.4359 8.782 26.5559 8.654C26.6879 8.51 26.8319 8.406 26.9879 8.342C27.1439 8.274 27.3059 8.23 27.4739 8.21C27.6459 8.19 27.8139 8.18 27.9779 8.18H28.8059V8.924H28.0379C27.7019 8.924 27.4499 9.006 27.2819 9.17C27.1179 9.334 27.0359 9.592 27.0359 9.944V17H26.1539ZM25.0319 11.276V10.52H28.8059V11.276H25.0319ZM30.0659 9.29V8.3H30.9479V9.29H30.0659ZM30.0659 17V10.52H30.9479V17H30.0659ZM35.4843 17.18C34.8523 17.18 34.3043 17.04 33.8403 16.76C33.3803 16.48 33.0223 16.086 32.7663 15.578C32.5103 15.07 32.3823 14.474 32.3823 13.79C32.3823 13.082 32.5083 12.47 32.7603 11.954C33.0123 11.438 33.3663 11.04 33.8223 10.76C34.2823 10.48 34.8243 10.34 35.4483 10.34C36.0883 10.34 36.6343 10.488 37.0863 10.784C37.5383 11.076 37.8803 11.496 38.1123 12.044C38.3443 12.592 38.4503 13.246 38.4303 14.006H37.5303V13.694C37.5143 12.854 37.3323 12.22 36.9843 11.792C36.6403 11.364 36.1363 11.15 35.4723 11.15C34.7763 11.15 34.2423 11.376 33.8703 11.828C33.5023 12.28 33.3183 12.924 33.3183 13.76C33.3183 14.576 33.5023 15.21 33.8703 15.662C34.2423 16.11 34.7683 16.334 35.4483 16.334C35.9123 16.334 36.3163 16.228 36.6603 16.016C37.0083 15.8 37.2823 15.49 37.4823 15.086L38.3043 15.404C38.0483 15.968 37.6703 16.406 37.1703 16.718C36.6743 17.026 36.1123 17.18 35.4843 17.18ZM33.0063 14.006V13.268H37.9563V14.006H33.0063ZM42.2759 17.18C41.6719 17.18 41.1559 17.03 40.7279 16.73C40.2999 16.426 39.9719 16.016 39.7439 15.5C39.5159 14.984 39.4019 14.402 39.4019 13.754C39.4019 13.11 39.5139 12.53 39.7379 12.014C39.9659 11.498 40.2919 11.09 40.7159 10.79C41.1399 10.49 41.6479 10.34 42.2399 10.34C42.8479 10.34 43.3599 10.488 43.7759 10.784C44.1919 11.08 44.5059 11.486 44.7179 12.002C44.9339 12.514 45.0419 13.098 45.0419 13.754C45.0419 14.398 44.9359 14.98 44.7239 15.5C44.5119 16.016 44.1999 16.426 43.7879 16.73C43.3759 17.03 42.8719 17.18 42.2759 17.18ZM42.3659 16.358C42.8259 16.358 43.2059 16.246 43.5059 16.022C43.8059 15.798 44.0299 15.49 44.1779 15.098C44.3259 14.702 44.3999 14.254 44.3999 13.754C44.3999 13.246 44.3259 12.798 44.1779 12.41C44.0299 12.018 43.8059 11.712 43.5059 11.492C43.2099 11.272 42.8359 11.162 42.3839 11.162C41.9199 11.162 41.5359 11.276 41.2319 11.504C40.9279 11.732 40.7019 12.042 40.5539 12.434C40.4099 12.826 40.3379 13.266 40.3379 13.754C40.3379 14.246 40.4119 14.69 40.5599 15.086C40.7119 15.478 40.9379 15.788 41.2379 16.016C41.5379 16.244 41.9139 16.358 42.3659 16.358ZM44.3999 17V12.122H44.3039V8.36H45.1919V17H44.3999Z" fill="#427A5B"/>
</svg>
